PathFileType	4	(X/Y/Z)	/Users/itak/Documents/Research/Walk-IL/dataset/trc/00555_00009.trc
DataRate	CameraRate	NumFrames	NumMarkers	Units	OrigDataRate	OrigDataStartFrame	OrigNumFrames
100.000000	100.000000	4	56	mm	100.000000	93	372
Frame#	Time	RPSI			LPSI			L3			STRN			T10			C7			CLAV			RBAK			LBAK			LSHO			LUPA			LAEL			LAOL			LWTS			LWPS			LFRA			LIFD			LHPS			LHTS			RSHO			RUPA			RAEL			RAOL			RWTS			RWPS			RFRA			RIFD			RHTS			RHPS			RBHD			LFHD			RFHD			LBHD			LHIP			RHIP			RASI			LASI			LKNE			LTHI			LANK			LTIP			LTOE			LMT1			LMT5			LHEE			RKNE			RTHI			RANK			RTIP			RTOE			RMT1			RMT5			RHEE			*53			*54			*55			
		X1	Y1	Z1	X2	Y2	Z2	X3	Y3	Z3	X4	Y4	Z4	X5	Y5	Z5	X6	Y6	Z6	X7	Y7	Z7	X8	Y8	Z8	X9	Y9	Z9	X10	Y10	Z10	X11	Y11	Z11	X12	Y12	Z12	X13	Y13	Z13	X14	Y14	Z14	X15	Y15	Z15	X16	Y16	Z16	X17	Y17	Z17	X18	Y18	Z18	X19	Y19	Z19	X20	Y20	Z20	X21	Y21	Z21	X22	Y22	Z22	X23	Y23	Z23	X24	Y24	Z24	X25	Y25	Z25	X26	Y26	Z26	X27	Y27	Z27	X28	Y28	Z28	X29	Y29	Z29	X30	Y30	Z30	X31	Y31	Z31	X32	Y32	Z32	X33	Y33	Z33	X34	Y34	Z34	X35	Y35	Z35	X36	Y36	Z36	X37	Y37	Z37	X38	Y38	Z38	X39	Y39	Z39	X40	Y40	Z40	X41	Y41	Z41	X42	Y42	Z42	X43	Y43	Z43	X44	Y44	Z44	X45	Y45	Z45	X46	Y46	Z46	X47	Y47	Z47	X48	Y48	Z48	X49	Y49	Z49	X50	Y50	Z50	X51	Y51	Z51	X52	Y52	Z52	X53	Y53	Z53	X54	Y54	Z54	X55	Y55	Z55	X56	Y56	Z56	

94	0.93	-1179.499389648438	1008.950927734375	103.1978607177734	-1143.742797851562	1009.614868164062	-25.15824699401855	-1156.173950195312	1103.097900390625	35.91847991943359	-925.6322021484375	1292.714233398438	74.22488403320312	-1164.415649414062	1228.7861328125	33.06306076049805	-1118.866088867188	1501.966430664062	56.38268280029297	-944.0428466796875	1404.039184570312	71.19620513916016	-1203.248413085938	1376.575805664062	127.343879699707	-1139.478149414062	1450.777587890625	-38.97311401367188	-1031.401611328125	1482.015747070312	-104.0506439208984	-1027.66650390625	1355.827392578125	-185.5391693115234	-993.286865234375	1134.471557617188	-197.5966339111328	-1090.843994140625	1124.379272460938	-173.1020660400391	-918.827880859375	893.200439453125	-120.3421936035156	-936.2584228515625	869.788330078125	-202.0562896728516	-967.9218139648438	1048.35986328125	-196.2039947509766	-921.3024291992188	730.3269653320312	-108.3236846923828	-926.6612548828125	811.0106201171875	-191.4450378417969	-895.2593383789062	815.9439697265625	-130.9161682128906	-1086.001220703125	1464.638305664062	216.1365203857422	-1115.708374023438	1400.182983398438	278.9347839355469	-1119.737548828125	1111.954223632812	325.8852233886719	-1172.71533203125	1095.171875	295.2882690429688	-987.9017333984375	889.1198120117188	293.2966918945312	-1035.750122070312	870.1422729492188	358.1560363769531	-1110.242065429688	1056.300537109375	333.9868774414062	-983.3521118164062	717.4579467773438	294.9874877929688	-960.5220947265625	797.4534301757812	310.0526733398438	-1018.59228515625	795.0120849609375	357.8008117675781	-1030.233520507812	1683.134643554688	140.1094055175781	-852.2244873046875	1686.877075195312	33.03046035766602	-893.3829956054688	1682.793823242188	171.2207336425781	-976.554443359375	1685.27783203125	-16.75440216064453	-986.75830078125	930.2978515625	-118.58447265625	-1089.13232421875	938.85009765625	251.4004211425781	-989.6649169921875	969.278076171875	214.2848205566406	-923.7023315429688	958.5980224609375	-53.1583366394043	-951.54248046875	488.4259033203125	-35.62807846069336	-953.638427734375	653.5264892578125	-77.533203125	-1093.517456054688	32.08746719360352	-50.67209243774414	-1041.825927734375	246.2139282226562	-53.4006462097168	-902.1077880859375	40.4841194152832	49.88363647460938	-979.3734741210938	40.83827209472656	69.45056915283203	-971.2659301757812	35.16339874267578	-37.78792953491211	-1173.90185546875	33.31829833984375	-12.83720684051514	-1029.080200195312	494.8955383300781	225.4990386962891	-1043.013916015625	785.6766357421875	260.8814697265625	-1167.913208007812	34.56172943115234	202.0591278076172	-1038.948608398438	347.7304992675781	214.5770111083984	-944.550537109375	46.02025985717773	194.9449157714844	-999.5689697265625	40.81113433837891	145.1364898681641	-1038.4951171875	39.78855895996094	240.5023956298828	-1213.827758789062	22.80537033081055	139.2985229492188	nan	nan	nan	nan	nan	nan	nan	nan	nan	
95	0.9400000000000001	-1178.01953125	1008.582153320312	103.00537109375	-1142.260620117188	1009.100891113281	-25.35725784301758	-1154.791381835938	1102.451171875	35.62464141845703	-924.5887451171875	1292.49462890625	73.71811676025391	-1163.328979492188	1228.132568359375	32.67588424682617	-1118.26220703125	1501.399780273438	56.05094146728516	-943.3028564453125	1403.699584960938	70.69945526123047	-1202.379516601562	1375.843139648438	126.9838562011719	-1138.897705078125	1450.16943359375	-39.32271957397461	-1030.91943359375	1481.629150390625	-104.5296325683594	-1027.261108398438	1355.391845703125	-186.0086517333984	-992.8480834960938	1134.017578125	-197.9720001220703	-1090.316284179688	1123.884643554688	-173.1387481689453	-918.1146240234375	892.845458984375	-120.7043075561523	-935.7928466796875	869.278564453125	-202.3781127929688	-967.4818115234375	1047.880004882812	-196.5262451171875	-920.2924194335938	730.2607421875	-108.6633834838867	-926.1612548828125	810.5291137695312	-191.6932525634766	-894.1572265625	815.7883911132812	-131.4268341064453	-1085.24365234375	1464.026611328125	215.7892913818359	-1114.808837890625	1399.472412109375	278.4765930175781	-1118.297607421875	1111.218017578125	325.3583679199219	-1171.302856445312	1094.44921875	294.8021850585938	-986.700927734375	888.1416625976562	292.4389038085938	-1034.443115234375	869.3067016601562	357.4994201660156	-1108.832763671875	1055.552124023438	333.4707641601562	-982.5187377929688	716.4864501953125	294.2686767578125	-959.652099609375	796.4193725585938	309.2681579589844	-1017.414916992188	794.09375	357.06201171875	-1029.415649414062	1682.645263671875	139.90283203125	-851.4315795898438	1686.326904296875	32.80571746826172	-892.5221557617188	1682.115356445312	170.9901580810547	-975.7369384765625	1684.93896484375	-16.93658828735352	-985.3707275390625	929.7615966796875	-118.8385848999023	-1087.741455078125	938.6724853515625	251.3648834228516	-988.2284545898438	969.0062255859375	214.2261962890625	-922.19140625	958.1194458007812	-53.31792068481445	-949.4678344726562	487.868896484375	-35.30523681640625	-951.7020263671875	653.0238647460938	-77.32655334472656	-1093.521728515625	32.09435653686523	-50.6775016784668	-1040.816650390625	245.9838104248047	-53.19583511352539	-902.1188354492188	40.59440231323242	49.81373977661133	-979.4033203125	40.92169570922852	69.36750030517578	-971.2596435546875	35.163818359375	-37.76280212402344	-1173.912109375	33.31027603149414	-12.83258533477783	-1027.908813476562	494.67724609375	225.6375579833984	-1041.645874023438	785.4976806640625	260.864990234375	-1168.086669921875	34.48514175415039	202.0765838623047	-1038.180541992188	347.4318542480469	214.7486724853516	-944.8902587890625	47.07767105102539	194.7598724365234	-999.8958740234375	41.30766296386719	145.0438079833984	-1038.80615234375	40.1764030456543	240.369873046875	-1213.980590820312	22.57169151306152	139.2816925048828	nan	nan	nan	nan	nan	nan	nan	nan	nan	
96	0.9500000000000001	-1176.411987304688	1008.23095703125	102.833122253418	-1140.677124023438	1008.588745117188	-25.53750991821289	-1153.263916015625	1101.777954101562	35.33777236938477	-923.4322509765625	1292.2734375	73.18534088134766	-1162.135498046875	1227.469482421875	32.28890991210938	-1117.564819335938	1500.828491210938	55.71661758422852	-942.4595336914062	1403.366821289062	70.18216705322266	-1201.407592773438	1375.083740234375	126.6163101196289	-1138.21240234375	1449.5625	-39.6733283996582	-1030.349365234375	1481.234619140625	-105.0057601928711	-1026.79150390625	1354.971557617188	-186.4799652099609	-992.38232421875	1133.56201171875	-198.3675537109375	-1089.739624023438	1123.398071289062	-173.1384735107422	-917.3758544921875	892.48046875	-121.1005096435547	-935.3192138671875	868.7869262695312	-202.7256774902344	-967.0145874023438	1047.390380859375	-196.882568359375	-919.2191162109375	730.2301635742188	-109.0726852416992	-925.6248168945312	810.0316772460938	-191.9741058349609	-893.0007934570312	815.6626586914062	-132.0009460449219	-1084.396362304688	1463.406494140625	215.4351959228516	-1113.83203125	1398.734252929688	278.0032043457031	-1116.836059570312	1110.46484375	324.8279113769531	-1169.858276367188	1093.710083007812	294.2857360839844	-985.4478149414062	887.1654663085938	291.5845031738281	-1033.077392578125	868.4627075195312	356.8246459960938	-1107.3837890625	1054.786499023438	332.9327392578125	-981.56640625	715.5364990234375	293.5230712890625	-958.6746215820312	795.4077758789062	308.4845275878906	-1016.179626464844	793.1884155273438	356.322509765625	-1028.550415039062	1682.1357421875	139.6765289306641	-850.5928344726562	1685.817993164062	32.55905914306641	-891.5963134765625	1681.490844726562	170.743408203125	-974.8463745117188	1684.591796875	-17.13903999328613	-983.8822631835938	929.1840209960938	-119.0914001464844	-1086.222412109375	938.4990844726562	251.3443145751953	-986.6651000976562	968.7296752929688	214.1572265625	-920.5431518554688	957.6747436523438	-53.53478622436523	-947.4824829101562	487.3028564453125	-35.02436447143555	-949.7679443359375	652.5283203125	-77.13793182373047	-1093.524780273438	32.10037994384766	-50.68188858032227	-1039.845947265625	245.7675933837891	-53.00421524047852	-902.134521484375	40.72181701660156	49.74143600463867	-979.4420166015625	41.01189041137695	69.30158996582031	-971.2601318359375	35.16571807861328	-37.72801971435547	-1173.926879882812	33.29909896850586	-12.82649326324463	-1026.724487304688	494.4434814453125	225.7355041503906	-1040.160400390625	785.3203125	260.83203125	-1168.25830078125	34.42244720458984	202.0832672119141	-1037.44677734375	347.1468811035156	214.9100952148438	-945.236572265625	48.14178466796875	194.548828125	-1000.221740722656	41.81718063354492	144.9291076660156	-1039.117065429688	40.60555267333984	240.2339172363281	-1214.125244140625	22.33634185791016	139.2560119628906	nan	nan	nan	nan	nan	nan	nan	nan	nan	
97	0.96	-1174.685424804688	1007.894165039062	102.6774444580078	-1138.993408203125	1008.080627441406	-25.69699287414551	-1151.600952148438	1101.097900390625	35.05644607543945	-922.1637573242188	1292.050903320312	72.62612152099609	-1160.836059570312	1226.8095703125	31.9063835144043	-1116.756958007812	1500.264038085938	55.37994003295898	-941.493408203125	1403.046020507812	69.63845062255859	-1200.3232421875	1374.315673828125	126.2427368164062	-1137.405639648438	1448.97021484375	-40.02356719970703	-1029.67529296875	1480.842163085938	-105.4779663085938	-1026.237670898438	1354.569213867188	-186.9547882080078	-991.8781127929688	1133.111083984375	-198.780517578125	-1089.1083984375	1122.935791015625	-173.1161804199219	-916.614990234375	892.11865234375	-121.5400619506836	-934.84375	868.3182373046875	-203.0964202880859	-966.5166625976562	1046.903564453125	-197.277099609375	-918.1033935546875	730.2345581054688	-109.5460510253906	-925.0593872070312	809.5377197265625	-192.2894744873047	-891.8079223632812	815.5690307617188	-132.6332702636719	-1083.441040039062	1462.78271484375	215.0763702392578	-1112.762451171875	1397.97900390625	277.5236511230469	-1115.353393554688	1109.700561523438	324.2978515625	-1168.3798828125	1092.961669921875	293.7411804199219	-984.1386108398438	886.212890625	290.7513427734375	-1031.662353515625	867.6195678710938	356.1401977539062	-1105.89794921875	1054.01318359375	332.3773803710938	-980.4829711914062	714.6228637695312	292.7555541992188	-957.5764770507812	794.4364624023438	307.7022399902344	-1014.888061523438	792.3050537109375	355.5970153808594	-1027.611938476562	1681.601806640625	139.4385528564453	-849.6909790039062	1685.355224609375	32.28813552856445	-890.59765625	1680.919921875	170.4805603027344	-973.8814697265625	1684.237426757812	-17.36286354064941	-982.289306640625	928.5630493164062	-119.3348770141602	-1084.564331054688	938.3324584960938	251.3185119628906	-984.9788208007812	968.463134765625	214.0692596435547	-918.7584838867188	957.2875366210938	-53.821533203125	-945.6041259765625	486.7286987304688	-34.79484558105469	-947.8529663085938	652.0353393554688	-76.97144317626953	-1093.527709960938	32.1048583984375	-50.68598175048828	-1038.921020507812	245.5643157958984	-52.83694458007812	-902.1596069335938	40.87927627563477	49.66448593139648	-979.5010375976562	41.11887741088867	69.25901794433594	-971.2695922851562	35.16831970214844	-37.68379211425781	-1173.94970703125	33.2819938659668	-12.821120262146	-1025.530029296875	494.1966857910156	225.7988739013672	-1038.546264648438	785.1409301757812	260.7660217285156	-1168.426879882812	34.37504196166992	202.0790100097656	-1036.7333984375	346.874755859375	215.0480041503906	-945.5852661132812	49.1915283203125	194.3202209472656	-1000.532043457031	42.32258605957031	144.7949676513672	-1039.421264648438	41.07400894165039	240.0966644287109	-1214.260498046875	22.10441970825195	139.2240905761719	nan	nan	nan	nan	nan	nan	nan	nan	nan	
